# This file uses centimeters as units for non-parametric coordinates.

mtllib SquareRing.mtl
g default
v -0.530330 0.000000 -0.530330
v -0.530330 0.000000 0.530330
v 0.530330 0.000000 0.530330
v 0.530330 0.000000 -0.530330
v -0.618718 0.216506 -0.618719
v -0.618719 0.216506 0.618718
v 0.618718 0.216506 0.618718
v 0.618718 0.216506 -0.618718
v -0.795495 0.216506 -0.795495
v -0.795495 0.216506 0.795495
v 0.795495 0.216506 0.795495
v 0.795495 0.216506 -0.795495
v -0.883883 -0.000000 -0.883884
v -0.883884 -0.000000 0.883883
v 0.883883 -0.000000 0.883884
v 0.883883 -0.000000 -0.883883
v -0.795495 -0.216506 -0.795495
v -0.795495 -0.216506 0.795495
v 0.795495 -0.216506 0.795495
v 0.795495 -0.216506 -0.795495
v -0.618718 -0.216506 -0.618718
v -0.618718 -0.216506 0.618718
v 0.618718 -0.216506 0.618718
v 0.618718 -0.216506 -0.618718
vt 0.471300 0.845897
vt 0.471300 0.540419
vt 0.533656 0.514962
vt 0.533656 0.871354
vt 0.408945 0.871354
vt 0.408945 0.514962
vt 0.209608 0.845897
vt 0.209608 0.540419
vt 0.271963 0.514962
vt 0.271963 0.871354
vt 0.147252 0.871354
vt 0.147252 0.514963
vt 0.126703 0.027297
vt 0.126703 0.485514
vt 0.064347 0.510971
vt 0.064347 0.001841
vt 0.001992 0.485514
vt 0.001992 0.027297
vt 0.391955 0.027297
vt 0.391955 0.485515
vt 0.329600 0.510971
vt 0.329600 0.001841
vt 0.267244 0.485515
vt 0.267244 0.027297
vt 0.583215 0.052754
vt 0.583215 0.409145
vt 0.532302 0.460058
vt 0.532302 0.001841
vt 0.939606 0.409145
vt 0.990519 0.460058
vt 0.939606 0.052754
vt 0.990519 0.001841
vt 0.539791 0.922267
vt 0.539791 0.464049
vt 0.590704 0.514963
vt 0.590704 0.871354
vt 0.998008 0.464049
vt 0.947095 0.514963
vt 0.998008 0.922267
vt 0.947095 0.871354
vt 0.340454 0.540419
vt 0.340454 0.845897
vt 0.278099 0.871354
vt 0.278099 0.514962
vt 0.402809 0.514962
vt 0.402809 0.871354
vt 0.078762 0.845897
vt 0.078762 0.540419
vt 0.141117 0.514962
vt 0.141117 0.871354
vt 0.016406 0.871354
vt 0.016406 0.514962
vt 0.259427 0.027297
vt 0.259427 0.485515
vt 0.197071 0.510971
vt 0.197071 0.001841
vt 0.134716 0.485515
vt 0.134716 0.027297
vt 0.399773 0.485514
vt 0.399773 0.027297
vt 0.462129 0.001841
vt 0.462129 0.510971
vt 0.524484 0.027297
vt 0.524484 0.485514
vn 0.925820 0.377965 0.000000
vn 0.925820 0.377965 0.000000
vn 0.925820 0.377965 0.000000
vn 0.925820 0.377965 0.000000
vn 0.000000 0.377965 -0.925820
vn 0.000000 0.377965 -0.925820
vn 0.000000 0.377965 -0.925820
vn 0.000000 0.377965 -0.925820
vn -0.925820 0.377965 0.000000
vn -0.925820 0.377965 0.000000
vn -0.925820 0.377965 0.000000
vn -0.925820 0.377965 0.000000
vn 0.000000 0.377965 0.925820
vn 0.000000 0.377965 0.925820
vn 0.000000 0.377965 0.925820
vn 0.000000 0.377965 0.925820
vn -0.000000 1.000000 0.000000
vn -0.000000 1.000000 0.000000
vn -0.000000 1.000000 0.000000
vn -0.000000 1.000000 0.000000
vn -0.000000 1.000000 0.000000
vn -0.000000 1.000000 0.000000
vn -0.000000 1.000000 0.000000
vn -0.000000 1.000000 0.000000
vn 0.000000 1.000000 0.000000
vn 0.000000 1.000000 0.000000
vn 0.000000 1.000000 0.000000
vn 0.000000 1.000000 0.000000
vn 0.000000 1.000000 -0.000000
vn 0.000000 1.000000 -0.000000
vn 0.000000 1.000000 -0.000000
vn 0.000000 1.000000 -0.000000
vn -0.925820 0.377965 -0.000000
vn -0.925820 0.377965 -0.000000
vn -0.925820 0.377965 -0.000000
vn -0.925820 0.377965 -0.000000
vn -0.000000 0.377965 0.925820
vn -0.000000 0.377965 0.925820
vn -0.000000 0.377965 0.925820
vn -0.000000 0.377965 0.925820
vn 0.925820 0.377965 0.000000
vn 0.925820 0.377965 0.000000
vn 0.925820 0.377965 0.000000
vn 0.925820 0.377965 0.000000
vn 0.000000 0.377965 -0.925820
vn 0.000000 0.377965 -0.925820
vn 0.000000 0.377964 -0.925820
vn 0.000000 0.377965 -0.925820
vn -0.925820 -0.377965 -0.000000
vn -0.925820 -0.377965 -0.000000
vn -0.925820 -0.377965 -0.000000
vn -0.925820 -0.377965 -0.000000
vn -0.000000 -0.377965 0.925820
vn -0.000000 -0.377965 0.925820
vn -0.000000 -0.377965 0.925820
vn -0.000000 -0.377965 0.925820
vn 0.925820 -0.377965 0.000000
vn 0.925820 -0.377965 0.000000
vn 0.925820 -0.377965 0.000000
vn 0.925820 -0.377965 0.000000
vn 0.000000 -0.377965 -0.925820
vn 0.000000 -0.377965 -0.925820
vn 0.000000 -0.377965 -0.925820
vn 0.000000 -0.377965 -0.925820
vn 0.000000 -1.000000 -0.000000
vn 0.000000 -1.000000 -0.000000
vn 0.000000 -1.000000 -0.000000
vn 0.000000 -1.000000 -0.000000
vn 0.000000 -1.000000 -0.000000
vn 0.000000 -1.000000 -0.000000
vn 0.000000 -1.000000 -0.000000
vn 0.000000 -1.000000 -0.000000
vn -0.000000 -1.000000 0.000000
vn -0.000000 -1.000000 0.000000
vn -0.000000 -1.000000 0.000000
vn -0.000000 -1.000000 0.000000
vn -0.000000 -1.000000 0.000000
vn -0.000000 -1.000000 0.000000
vn -0.000000 -1.000000 0.000000
vn -0.000000 -1.000000 0.000000
vn 0.925820 -0.377964 0.000000
vn 0.925820 -0.377964 0.000000
vn 0.925820 -0.377964 0.000000
vn 0.925820 -0.377964 0.000000
vn 0.000000 -0.377964 -0.925820
vn 0.000000 -0.377964 -0.925820
vn 0.000000 -0.377964 -0.925820
vn 0.000000 -0.377964 -0.925820
vn -0.925820 -0.377964 0.000000
vn -0.925820 -0.377964 0.000000
vn -0.925820 -0.377964 0.000000
vn -0.925820 -0.377964 0.000000
vn -0.000000 -0.377964 0.925820
vn -0.000000 -0.377964 0.925820
vn -0.000000 -0.377964 0.925820
vn -0.000000 -0.377964 0.925820
s off
g SquareRing
usemtl initialShadingGroup
f 2/1/1 1/2/2 5/3/3 6/4/4
f 3/41/5 2/42/6 6/43/7 7/44/8
f 4/7/9 3/8/10 7/9/11 8/10/12
f 1/47/13 4/48/14 8/49/15 5/50/16
f 6/25/17 5/26/18 9/27/19 10/28/20
f 7/31/21 6/25/22 10/28/23 11/32/24
f 8/29/25 7/31/26 11/32/27 12/30/28
f 5/26/29 8/29/30 12/30/31 9/27/32
f 10/13/33 9/14/34 13/15/35 14/16/36
f 11/53/37 10/54/38 14/55/39 15/56/40
f 12/19/41 11/20/42 15/21/43 16/22/44
f 9/59/45 12/60/46 16/61/47 13/62/48
f 14/16/49 13/15/50 17/17/51 18/18/52
f 15/56/53 14/55/54 18/57/55 19/58/56
f 16/22/57 15/21/58 19/23/59 20/24/60
f 13/62/61 16/61/62 20/63/63 17/64/64
f 18/33/65 17/34/66 21/35/67 22/36/68
f 19/39/69 18/33/70 22/36/71 23/40/72
f 20/37/73 19/39/74 23/40/75 24/38/76
f 17/34/77 20/37/78 24/38/79 21/35/80
f 22/5/81 21/6/82 1/2/83 2/1/84
f 23/45/85 22/46/86 2/42/87 3/41/88
f 24/11/89 23/12/90 3/8/91 4/7/92
f 21/51/93 24/52/94 4/48/95 1/47/96
